<mxfile host="65bd71144e">
    <diagram id="0ciXtUrEmP705NWVv3Zk" name="Seite-1">
        <mxGraphModel dx="1022" dy="800" grid="1" gridSize="10" guides="1" tooltips="1" connect="1" arrows="1" fold="1" page="1" pageScale="1" pageWidth="2336" pageHeight="1654" math="0" shadow="0">
            <root>
                <mxCell id="0"/>
                <mxCell id="1" parent="0"/>
                <mxCell id="2" value="" style="endArrow=classic;html=1;strokeWidth=3;" parent="1" edge="1">
                    <mxGeometry width="50" height="50" relative="1" as="geometry">
                        <mxPoint x="360" y="280" as="sourcePoint"/>
                        <mxPoint x="1480" y="280" as="targetPoint"/>
                    </mxGeometry>
                </mxCell>
                <mxCell id="3" value="" style="endArrow=none;html=1;strokeWidth=3;" parent="1" edge="1">
                    <mxGeometry width="50" height="50" relative="1" as="geometry">
                        <mxPoint x="920" y="240" as="sourcePoint"/>
                        <mxPoint x="920" y="280" as="targetPoint"/>
                    </mxGeometry>
                </mxCell>
                <mxCell id="4" value="UTC" style="text;html=1;strokeColor=none;fillColor=none;align=center;verticalAlign=middle;whiteSpace=wrap;rounded=0;fontSize=20;fontStyle=1" parent="1" vertex="1">
                    <mxGeometry x="890" y="200" width="60" height="30" as="geometry"/>
                </mxCell>
                <mxCell id="5" value="" style="endArrow=none;html=1;strokeWidth=3;" parent="1" edge="1">
                    <mxGeometry width="50" height="50" relative="1" as="geometry">
                        <mxPoint x="840" y="240" as="sourcePoint"/>
                        <mxPoint x="840" y="280" as="targetPoint"/>
                    </mxGeometry>
                </mxCell>
                <mxCell id="6" value="" style="endArrow=none;html=1;strokeWidth=3;" parent="1" edge="1">
                    <mxGeometry width="50" height="50" relative="1" as="geometry">
                        <mxPoint x="760" y="240" as="sourcePoint"/>
                        <mxPoint x="760" y="280" as="targetPoint"/>
                    </mxGeometry>
                </mxCell>
                <mxCell id="7" value="" style="endArrow=none;html=1;strokeWidth=3;" parent="1" edge="1">
                    <mxGeometry width="50" height="50" relative="1" as="geometry">
                        <mxPoint x="680" y="240" as="sourcePoint"/>
                        <mxPoint x="680" y="280" as="targetPoint"/>
                    </mxGeometry>
                </mxCell>
                <mxCell id="8" value="" style="endArrow=none;html=1;strokeWidth=3;" parent="1" edge="1">
                    <mxGeometry width="50" height="50" relative="1" as="geometry">
                        <mxPoint x="600" y="240" as="sourcePoint"/>
                        <mxPoint x="600" y="280" as="targetPoint"/>
                    </mxGeometry>
                </mxCell>
                <mxCell id="9" value="" style="endArrow=none;html=1;strokeWidth=3;" parent="1" edge="1">
                    <mxGeometry width="50" height="50" relative="1" as="geometry">
                        <mxPoint x="520" y="240" as="sourcePoint"/>
                        <mxPoint x="520" y="280" as="targetPoint"/>
                    </mxGeometry>
                </mxCell>
                <mxCell id="10" value="" style="endArrow=none;html=1;strokeWidth=3;" parent="1" edge="1">
                    <mxGeometry width="50" height="50" relative="1" as="geometry">
                        <mxPoint x="440" y="240" as="sourcePoint"/>
                        <mxPoint x="440" y="280" as="targetPoint"/>
                    </mxGeometry>
                </mxCell>
                <mxCell id="11" value="- 2 h" style="text;html=1;strokeColor=none;fillColor=none;align=center;verticalAlign=middle;whiteSpace=wrap;rounded=0;fontSize=16;fontStyle=1" parent="1" vertex="1">
                    <mxGeometry x="810" y="200" width="60" height="30" as="geometry"/>
                </mxCell>
                <mxCell id="12" value="- 4 h" style="text;html=1;strokeColor=none;fillColor=none;align=center;verticalAlign=middle;whiteSpace=wrap;rounded=0;fontSize=16;fontStyle=1" parent="1" vertex="1">
                    <mxGeometry x="730" y="200" width="60" height="30" as="geometry"/>
                </mxCell>
                <mxCell id="13" value="- 6 h" style="text;html=1;strokeColor=none;fillColor=none;align=center;verticalAlign=middle;whiteSpace=wrap;rounded=0;fontSize=16;fontStyle=1" parent="1" vertex="1">
                    <mxGeometry x="650" y="200" width="60" height="30" as="geometry"/>
                </mxCell>
                <mxCell id="14" value="- 8 h" style="text;html=1;strokeColor=none;fillColor=none;align=center;verticalAlign=middle;whiteSpace=wrap;rounded=0;fontSize=16;fontStyle=1" parent="1" vertex="1">
                    <mxGeometry x="570" y="200" width="60" height="30" as="geometry"/>
                </mxCell>
                <mxCell id="15" value="- 10 h" style="text;html=1;strokeColor=none;fillColor=none;align=center;verticalAlign=middle;whiteSpace=wrap;rounded=0;fontSize=16;fontStyle=1" parent="1" vertex="1">
                    <mxGeometry x="490" y="200" width="60" height="30" as="geometry"/>
                </mxCell>
                <mxCell id="16" value="- 12 h" style="text;html=1;strokeColor=none;fillColor=none;align=center;verticalAlign=middle;whiteSpace=wrap;rounded=0;fontSize=16;fontStyle=1" parent="1" vertex="1">
                    <mxGeometry x="410" y="200" width="60" height="30" as="geometry"/>
                </mxCell>
                <mxCell id="17" value="" style="endArrow=none;html=1;strokeWidth=3;" parent="1" edge="1">
                    <mxGeometry width="50" height="50" relative="1" as="geometry">
                        <mxPoint x="1400" y="240" as="sourcePoint"/>
                        <mxPoint x="1400" y="280" as="targetPoint"/>
                    </mxGeometry>
                </mxCell>
                <mxCell id="18" value="" style="endArrow=none;html=1;strokeWidth=3;" parent="1" edge="1">
                    <mxGeometry width="50" height="50" relative="1" as="geometry">
                        <mxPoint x="1320" y="240" as="sourcePoint"/>
                        <mxPoint x="1320" y="280" as="targetPoint"/>
                    </mxGeometry>
                </mxCell>
                <mxCell id="19" value="" style="endArrow=none;html=1;strokeWidth=3;" parent="1" edge="1">
                    <mxGeometry width="50" height="50" relative="1" as="geometry">
                        <mxPoint x="1240" y="240" as="sourcePoint"/>
                        <mxPoint x="1240" y="280" as="targetPoint"/>
                    </mxGeometry>
                </mxCell>
                <mxCell id="20" value="" style="endArrow=none;html=1;strokeWidth=3;" parent="1" edge="1">
                    <mxGeometry width="50" height="50" relative="1" as="geometry">
                        <mxPoint x="1160" y="240" as="sourcePoint"/>
                        <mxPoint x="1160" y="280" as="targetPoint"/>
                    </mxGeometry>
                </mxCell>
                <mxCell id="21" value="" style="endArrow=none;html=1;strokeWidth=3;" parent="1" edge="1">
                    <mxGeometry width="50" height="50" relative="1" as="geometry">
                        <mxPoint x="1080" y="240" as="sourcePoint"/>
                        <mxPoint x="1080" y="280" as="targetPoint"/>
                    </mxGeometry>
                </mxCell>
                <mxCell id="22" value="" style="endArrow=none;html=1;strokeWidth=3;" parent="1" edge="1">
                    <mxGeometry width="50" height="50" relative="1" as="geometry">
                        <mxPoint x="1000" y="240" as="sourcePoint"/>
                        <mxPoint x="1000" y="280" as="targetPoint"/>
                    </mxGeometry>
                </mxCell>
                <mxCell id="23" value="+ 12 h" style="text;html=1;strokeColor=none;fillColor=none;align=center;verticalAlign=middle;whiteSpace=wrap;rounded=0;fontSize=16;fontStyle=1" parent="1" vertex="1">
                    <mxGeometry x="1370" y="200" width="60" height="30" as="geometry"/>
                </mxCell>
                <mxCell id="24" value="+ 10 h" style="text;html=1;strokeColor=none;fillColor=none;align=center;verticalAlign=middle;whiteSpace=wrap;rounded=0;fontSize=16;fontStyle=1" parent="1" vertex="1">
                    <mxGeometry x="1290" y="200" width="60" height="30" as="geometry"/>
                </mxCell>
                <mxCell id="25" value="+ 8 h" style="text;html=1;strokeColor=none;fillColor=none;align=center;verticalAlign=middle;whiteSpace=wrap;rounded=0;fontSize=16;fontStyle=1" parent="1" vertex="1">
                    <mxGeometry x="1210" y="200" width="60" height="30" as="geometry"/>
                </mxCell>
                <mxCell id="26" value="+ 6 h" style="text;html=1;strokeColor=none;fillColor=none;align=center;verticalAlign=middle;whiteSpace=wrap;rounded=0;fontSize=16;fontStyle=1" parent="1" vertex="1">
                    <mxGeometry x="1130" y="200" width="60" height="30" as="geometry"/>
                </mxCell>
                <mxCell id="27" value="+ 4 h" style="text;html=1;strokeColor=none;fillColor=none;align=center;verticalAlign=middle;whiteSpace=wrap;rounded=0;fontSize=16;fontStyle=1" parent="1" vertex="1">
                    <mxGeometry x="1050" y="200" width="60" height="30" as="geometry"/>
                </mxCell>
                <mxCell id="28" value="+ 2 h" style="text;html=1;strokeColor=none;fillColor=none;align=center;verticalAlign=middle;whiteSpace=wrap;rounded=0;fontSize=16;fontStyle=1" parent="1" vertex="1">
                    <mxGeometry x="970" y="200" width="60" height="30" as="geometry"/>
                </mxCell>
                <mxCell id="30" value="" style="endArrow=none;dashed=1;html=1;dashPattern=1 3;strokeWidth=2;fontSize=20;exitX=0.5;exitY=1;exitDx=0;exitDy=0;" parent="1" source="29" edge="1">
                    <mxGeometry width="50" height="50" relative="1" as="geometry">
                        <mxPoint x="920" y="600" as="sourcePoint"/>
                        <mxPoint x="920" y="280" as="targetPoint"/>
                    </mxGeometry>
                </mxCell>
                <mxCell id="29" value="30.09.2022&lt;br style=&quot;font-size: 16px&quot;&gt;21:20" style="text;html=1;strokeColor=none;fillColor=none;align=center;verticalAlign=middle;whiteSpace=wrap;rounded=0;fontSize=16;labelBackgroundColor=default;labelBorderColor=default;" parent="1" vertex="1">
                    <mxGeometry x="880" y="320" width="80" height="40" as="geometry"/>
                </mxCell>
                <mxCell id="31" value="" style="endArrow=none;dashed=1;html=1;dashPattern=1 3;strokeWidth=2;fontSize=20;exitX=0.5;exitY=1;exitDx=0;exitDy=0;" parent="1" source="32" edge="1">
                    <mxGeometry width="50" height="50" relative="1" as="geometry">
                        <mxPoint x="1160" y="600" as="sourcePoint"/>
                        <mxPoint x="1160" y="280" as="targetPoint"/>
                    </mxGeometry>
                </mxCell>
                <mxCell id="32" value="01.10.2022&lt;br style=&quot;font-size: 16px&quot;&gt;03:20" style="text;html=1;strokeColor=none;fillColor=none;align=center;verticalAlign=middle;whiteSpace=wrap;rounded=0;fontSize=16;labelBackgroundColor=default;labelBorderColor=default;" parent="1" vertex="1">
                    <mxGeometry x="1120" y="320" width="80" height="40" as="geometry"/>
                </mxCell>
                <mxCell id="35" value="User-Timezone" style="text;html=1;strokeColor=none;fillColor=none;align=center;verticalAlign=middle;whiteSpace=wrap;rounded=0;labelBackgroundColor=default;labelBorderColor=none;fontSize=16;" parent="1" vertex="1">
                    <mxGeometry x="1120" y="360" width="80" height="40" as="geometry"/>
                </mxCell>
                <mxCell id="36" value="Backend-Timezone" style="text;html=1;strokeColor=none;fillColor=none;align=center;verticalAlign=middle;whiteSpace=wrap;rounded=0;labelBackgroundColor=default;labelBorderColor=none;fontSize=16;" parent="1" vertex="1">
                    <mxGeometry x="880" y="360" width="80" height="40" as="geometry"/>
                </mxCell>
                <mxCell id="37" value="&lt;h3&gt;Dein Beitrag zum Gemeinwohl&lt;/h3&gt;&lt;br&gt;    Bring dich mit deinen Talenten in die Gemeinschaft ein! Dein &lt;br&gt;freiwilliges Engagement honorieren wir mit 20 GDD pro Stunde bis maximal&lt;br&gt; 1.000 GDD im Monat.&lt;br&gt;    &lt;ul class=&quot;my-3&quot;&gt;&lt;li&gt;Für &lt;b&gt;August&amp;nbsp;2022&lt;/b&gt; kannst du noch &lt;b&gt;1000&lt;/b&gt; GDD einreichen.&lt;/li&gt;&lt;li&gt;Für &lt;b&gt;September 2022&lt;/b&gt; kannst du noch &lt;b&gt;1000&lt;/b&gt; GDD einreichen.&lt;/li&gt;&lt;/ul&gt;" style="rounded=1;whiteSpace=wrap;html=1;labelBackgroundColor=none;labelBorderColor=none;fontSize=16;align=left;arcSize=8;fillColor=#d5e8d4;strokeColor=#82b366;" parent="1" vertex="1">
                    <mxGeometry x="600" y="720" width="640" height="230" as="geometry"/>
                </mxCell>
                <mxCell id="38" value="&lt;h3&gt;Dein Beitrag zum Gemeinwohl&lt;/h3&gt;&lt;br&gt;    Bring dich mit deinen Talenten in die Gemeinschaft ein! Dein &lt;br&gt;freiwilliges Engagement honorieren wir mit 20 GDD pro Stunde bis maximal&lt;br&gt; 1.000 GDD im Monat.&lt;br&gt;    &lt;ul class=&quot;my-3&quot;&gt;&lt;li&gt;Für&amp;nbsp;&lt;b&gt;&lt;b&gt;September&lt;/b&gt;&amp;nbsp;2022&lt;/b&gt; kannst du noch &lt;b&gt;1000&lt;/b&gt; GDD einreichen.&lt;/li&gt;&lt;li&gt;Für &lt;b&gt;Oktober 2022&lt;/b&gt; kannst du noch &lt;b&gt;1000&lt;/b&gt; GDD einreichen.&lt;/li&gt;&lt;/ul&gt;" style="rounded=1;whiteSpace=wrap;html=1;labelBackgroundColor=none;labelBorderColor=none;fontSize=16;align=left;arcSize=8;fillColor=#f8cecc;strokeColor=#b85450;" parent="1" vertex="1">
                    <mxGeometry x="600" y="440" width="640" height="230" as="geometry"/>
                </mxCell>
                <mxCell id="39" value="IST-Anzeige" style="text;html=1;strokeColor=none;fillColor=none;align=left;verticalAlign=middle;whiteSpace=wrap;rounded=0;labelBackgroundColor=none;labelBorderColor=none;fontSize=20;fontStyle=1" parent="1" vertex="1">
                    <mxGeometry x="450" y="440" width="150" height="30" as="geometry"/>
                </mxCell>
                <mxCell id="40" value="SOLL-Anzeige" style="text;html=1;strokeColor=none;fillColor=none;align=left;verticalAlign=middle;whiteSpace=wrap;rounded=0;labelBackgroundColor=none;labelBorderColor=none;fontSize=20;fontStyle=1" parent="1" vertex="1">
                    <mxGeometry x="450" y="720" width="150" height="30" as="geometry"/>
                </mxCell>
                <mxCell id="41" value="" style="rounded=0;whiteSpace=wrap;html=1;labelBackgroundColor=none;labelBorderColor=none;fontSize=20;fillColor=#FFFF33;opacity=50;" parent="1" vertex="1">
                    <mxGeometry x="667" y="906" width="130" height="20" as="geometry"/>
                </mxCell>
                <mxCell id="42" value="" style="rounded=0;whiteSpace=wrap;html=1;labelBackgroundColor=none;labelBorderColor=none;fontSize=20;fillColor=#FFFF33;opacity=50;" parent="1" vertex="1">
                    <mxGeometry x="667" y="882" width="103" height="20" as="geometry"/>
                </mxCell>
                <mxCell id="43" value="" style="rounded=0;whiteSpace=wrap;html=1;labelBackgroundColor=none;labelBorderColor=none;fontSize=20;fillColor=#FFFF33;opacity=50;strokeColor=#d6b656;" parent="1" vertex="1">
                    <mxGeometry x="670" y="627" width="103" height="20" as="geometry"/>
                </mxCell>
                <mxCell id="44" value="" style="rounded=0;whiteSpace=wrap;html=1;labelBackgroundColor=none;labelBorderColor=none;fontSize=20;fillColor=#FFFF33;opacity=50;strokeColor=#d6b656;" parent="1" vertex="1">
                    <mxGeometry x="668" y="602" width="130" height="20" as="geometry"/>
                </mxCell>
            </root>
        </mxGraphModel>
    </diagram>
</mxfile>